<svg version="1.1" xmlns="http://www.w3.org/2000/svg" viewBox="0 0 1024 1024" width="1024" height="1024">
  <!-- Dark background -->
  <rect width="1024" height="1024" rx="180" fill="#0f1117"/>
  <!-- Logo mark in white -->
  <path fill="#ffffff" d="
M526.999878,719.391724
	C483.671906,719.390808 440.843903,719.387939 398.015930,719.387939
	C391.152191,719.387878 391.152161,719.393799 390.872437,712.731018
	C390.617493,706.658875 389.390808,705.368896 383.407043,705.343079
	C371.741943,705.292725 360.073456,705.181580 348.412811,705.415771
	C344.194305,705.500488 342.477600,704.428772 342.576721,699.862000
	C342.775970,690.678345 342.151306,690.306274 332.999298,690.320679
	C327.666656,690.329102 322.329132,690.170471 317.002960,690.353577
	C313.389923,690.477783 311.654785,689.191040 312.002319,685.453491
	C312.125305,684.131104 312.068054,682.788269 312.037537,681.455994
	C311.901367,675.511353 310.847046,674.450867 304.988647,674.309631
	C297.682861,674.133484 297.675262,674.133484 297.674713,666.884583
	C297.670593,612.557495 297.672241,558.230408 297.665161,503.903351
	C297.664062,495.517273 297.282715,495.149414 288.949799,495.113922
	C280.690216,495.078735 280.690216,495.078735 280.675507,486.977478
	C280.660095,478.510315 279.626312,477.217255 271.299530,477.413635
	C266.887726,477.517700 265.580475,476.040497 265.592346,471.682648
	C265.703583,430.854462 265.662201,390.025665 265.540741,349.197418
	C265.528992,345.238739 266.574188,343.544128 270.873962,343.573700
	C280.505554,343.640045 280.698425,343.435059 280.586914,333.978851
	C280.537567,329.797241 282.000183,328.515503 286.073792,328.549957
	C293.052246,328.608978 300.040009,329.074799 307.033417,328.104431
	C310.609833,327.608154 312.066956,326.103577 311.804077,322.613800
	C311.691742,321.122681 311.896759,319.606262 311.765930,318.118195
	C311.461151,314.651520 312.916351,313.433441 316.413055,313.477173
	C331.075653,313.660614 345.742828,313.767334 360.404205,313.579529
	C364.903320,313.521912 366.757874,314.819946 366.422943,319.501709
	C366.236633,322.106201 365.003601,325.837280 368.465729,327.036285
	C372.198181,328.328796 376.412201,328.442902 380.174713,326.782471
	C382.519440,325.747711 382.938019,323.241913 382.924561,320.768738
	C382.880066,312.603607 382.922394,304.437988 382.867767,296.272949
	C382.824036,289.731689 382.810242,289.704865 389.583649,289.673828
	C390.583527,289.669220 391.584930,289.630768 392.583008,289.671753
	C396.582794,289.836090 398.257721,287.532532 398.717163,283.931702
	C398.780273,283.437469 398.771362,282.933838 398.791229,282.434326
	C399.177948,272.710297 399.175446,272.686981 409.130829,271.679565
	C413.584290,271.228912 414.878693,268.499969 414.851715,264.446320
	C414.806274,257.613281 414.885254,257.608093 421.808624,257.619263
	C427.974426,257.629211 434.142944,257.544891 440.305115,257.703094
	C444.793304,257.818329 446.730347,255.668365 446.717010,251.379639
	C446.716492,251.213058 446.722076,251.046371 446.727844,250.879852
	C447.114838,239.678314 447.114838,239.677338 458.251312,239.677689
	C495.580353,239.678864 532.909424,239.674606 570.238464,239.688232
	C576.885376,239.690659 576.885315,239.725494 576.436401,246.432571
	C575.781799,256.211212 577.014343,257.589447 586.677979,257.647552
	C592.843384,257.684601 599.011536,257.719604 605.174194,257.573914
	C608.513306,257.494965 610.320923,258.533508 609.750305,262.182037
	C609.622864,262.996857 609.612488,263.843994 609.659363,264.669922
	C610.036133,271.309357 610.441711,271.688232 616.989502,271.710419
	C627.754456,271.746948 626.245239,270.796509 626.322815,281.026520
	C626.384583,289.165436 626.839478,289.647552 635.239502,289.667114
	C642.327454,289.683624 642.332153,289.683624 642.333679,296.774658
	C642.335510,305.107025 642.430176,313.441284 642.276794,321.770874
	C642.211121,325.336121 643.542114,327.096130 647.162415,327.060364
	C648.490967,327.047241 649.822754,327.209076 651.150696,327.319427
	C657.781921,327.870605 658.730652,327.016815 658.845459,320.367554
	C658.960388,313.710297 658.960388,313.685699 665.551270,313.673889
	C679.549561,313.648834 693.549927,313.785217 707.544922,313.564667
	C711.895935,313.496094 713.774902,314.908234 713.241150,319.299683
	C713.081604,320.612305 713.276794,321.964111 713.231201,323.295258
	C713.102661,327.047028 714.775818,328.766083 718.635071,328.682373
	C724.964539,328.545074 731.307861,328.853455 737.628967,328.586304
	C741.843689,328.408203 744.041992,329.589874 743.363953,334.160156
	C743.218811,335.138641 743.410828,336.162598 743.328613,337.155731
	C742.932434,341.938843 745.291931,343.643066 749.874023,343.711487
	C760.379333,343.868317 760.338684,343.985748 760.397400,354.256592
	C760.547913,380.579224 760.757324,406.901550 760.900818,433.224243
	C760.970581,446.030975 760.861511,458.839203 761.011780,471.644684
	C761.060669,475.810089 759.765503,477.488251 755.254578,477.449402
	C742.466309,477.339264 743.130493,475.167755 743.453430,489.433899
	C743.552368,493.803925 742.402039,495.460876 737.911133,495.164978
	C732.600098,494.815094 727.250793,495.065155 721.918518,495.013336
	C717.130737,494.966827 716.172607,497.810760 716.277710,501.906891
	C716.377808,505.807587 716.843262,508.753998 721.884216,508.809662
	C729.317444,508.891724 729.328613,509.096832 729.329529,516.700012
	C729.335938,567.360840 729.286743,618.021790 729.425903,668.682251
	C729.437866,673.046631 728.224792,674.926819 723.783813,674.353149
	C722.309143,674.162598 720.785767,674.388123 719.288818,674.324768
	C715.051453,674.145508 713.376709,676.275085 713.172302,680.373718
	C712.673767,690.373779 712.581970,690.363159 702.389221,690.339417
	C697.556519,690.328125 692.723328,690.389771 687.891296,690.335876
	C683.934387,690.291809 682.256165,692.019714 682.272949,696.106201
	C682.314392,706.201660 683.650085,705.312317 672.801514,705.323486
	C653.303772,705.343628 633.805969,705.314392 614.308228,705.333008
	C608.214355,705.338806 607.423828,706.148865 607.394043,712.284241
	C607.356506,720.024780 608.250427,719.338074 599.985229,719.348389
	C575.823486,719.378662 551.661682,719.378845 526.999878,719.391724
M691.281982,342.833008
	C693.731873,342.804626 694.361267,344.291046 694.333984,346.410858
	C694.297607,349.242889 694.347534,352.075897 694.327148,354.908264
	C694.250977,365.495087 695.243103,364.389099 684.969421,364.225250
	C680.218994,364.149506 677.508301,365.192993 678.301697,370.536133
	C678.851135,374.236267 677.045471,375.420654 673.483276,375.607880
	C667.815247,375.905853 662.175293,375.881897 656.509644,375.684265
	C650.021179,375.457977 643.521362,375.457306 637.027771,375.514282
	C633.361206,375.546448 630.818665,377.152130 631.214722,381.282135
	C631.719177,386.541656 628.810120,387.139771 624.478149,387.135101
	C559.996643,387.065613 495.514984,387.121429 431.033386,387.140808
	C420.536499,387.143951 410.039032,387.169952 399.543152,387.059967
	C396.989227,387.033234 394.161743,387.371368 393.628540,383.387177
	C392.708527,376.511658 392.077789,376.238556 385.093323,376.011353
	C373.776123,375.643219 362.450043,376.421753 351.128998,375.535950
	C347.714386,375.268799 346.413605,374.123230 346.594940,370.724792
	C346.839874,366.135712 344.527161,363.992950 339.858978,364.296295
	C337.371094,364.457977 334.861633,364.254547 332.363708,364.304321
	C329.902832,364.353363 328.666565,363.341644 328.693604,360.765015
	C328.742584,356.100494 328.726044,351.433716 328.633942,346.769897
	C328.580231,344.048706 329.799652,342.748749 332.494080,342.754608
	C336.326080,342.762939 340.158112,342.761475 343.990112,342.758362
	C354.920227,342.749481 353.356842,342.614441 353.314758,351.750305
	C353.297760,355.445007 354.383514,357.721863 358.732666,357.738586
	C362.919312,357.754669 365.601379,356.610443 365.628784,351.992889
	C365.664337,345.994873 365.611969,339.996185 365.671448,333.998535
	C365.713562,329.751495 363.731201,328.184967 359.488434,328.257324
	C347.994812,328.453308 336.495789,328.332123 324.998901,328.339264
	C313.597870,328.346344 313.453400,328.346344 313.346405,339.567841
	C313.310272,343.358093 311.895752,344.487946 308.311768,344.383972
	C301.652496,344.190887 294.979248,344.474304 288.320404,344.274292
	C283.963867,344.143463 282.237823,346.096893 282.343414,350.242126
	C282.424011,353.405914 282.486084,356.579132 282.334106,359.737488
	C282.157196,363.414948 283.800476,364.952667 287.396729,364.729553
	C288.889130,364.636932 290.406372,364.882965 291.891510,364.747284
	C295.578705,364.410309 296.828674,366.194550 297.072815,369.687195
	C297.758545,379.496368 297.859619,379.652618 307.526611,379.631470
	C311.780182,379.622162 313.433136,380.950500 313.336487,385.405731
	C313.184479,392.411224 314.753754,393.644073 321.985504,393.657959
	C328.608704,393.670685 335.231964,393.660675 341.694458,393.660675
	C343.958008,403.676941 343.958008,403.674194 354.076813,403.673584
	C364.740601,403.672943 375.404694,403.720825 386.068024,403.652924
	C388.965179,403.634491 391.128204,404.031647 390.449677,407.731812
	C389.578735,412.481079 391.894012,413.847076 396.334259,413.801880
	C411.328613,413.649231 426.325470,413.734802 441.321350,413.739746
	C501.138336,413.759521 560.955444,413.738678 620.772156,413.883240
	C626.024048,413.895935 629.605530,413.021698 629.540894,406.822754
	C629.503906,403.274231 632.288818,403.697632 634.582886,403.693878
	C648.412476,403.671295 662.244202,403.541840 676.070557,403.751831
	C680.637024,403.821198 683.182312,401.974060 683.494141,397.649261
	C683.743835,394.186462 685.539307,393.620758 688.412354,393.668854
	C694.075745,393.763641 699.742493,393.722412 705.407104,393.668030
	C711.062805,393.613770 712.470093,392.202728 712.662659,386.597778
	C712.898560,379.730225 712.898682,379.730133 720.016968,379.692108
	C720.850037,379.687653 721.685547,379.642212 722.515808,379.688599
	C726.840515,379.930145 728.494446,377.496368 728.643066,373.578827
	C728.706177,371.914459 728.737122,370.245605 728.692566,368.581177
	C728.626526,366.112610 729.751892,365.096344 732.236206,364.822540
	C742.834106,363.654510 742.829041,363.591919 742.778259,352.836182
	C742.771973,351.503479 742.720337,350.170929 742.712891,348.838226
	C742.695496,345.741211 741.156616,344.297089 738.053406,344.325836
	C732.888672,344.373749 727.722961,344.344116 722.557800,344.326355
	C710.928040,344.286407 712.909119,345.009277 712.634033,334.956604
	C712.481628,329.385803 711.456177,328.363373 705.724487,328.345673
	C692.228271,328.303955 678.730408,328.432190 665.236328,328.254303
	C661.120361,328.200073 659.398560,329.921143 659.384338,333.807770
	C659.363586,339.472656 659.326904,345.137726 659.344482,350.802521
	C659.364380,357.203156 659.884033,357.482666 666.116333,357.742767
	C670.840088,357.939941 673.014893,356.166809 672.690369,351.403839
	C672.588623,349.911469 672.776611,348.398712 672.665649,346.907715
	C672.438049,343.849487 673.913696,342.726776 676.821533,342.781219
	C681.318542,342.865387 685.818298,342.804443 691.281982,342.833008
M394.152222,549.630432
	C394.818237,549.646729 395.484161,549.667480 396.150238,549.678711
	C406.402557,549.851318 405.310150,548.367493 405.318634,559.193787
	C405.351624,601.348083 405.313171,643.502319 405.325745,685.656616
	C405.327606,691.858215 406.089874,692.642578 412.185364,692.666199
	C424.681519,692.714722 437.177948,692.689575 449.674286,692.683899
	C458.554077,692.679871 458.718842,692.515198 458.718597,683.811707
	C458.717499,641.157776 458.780640,598.503540 458.616364,555.850220
	C458.598083,551.099792 459.903442,549.525513 464.778381,549.574829
	C487.269501,549.802734 509.764160,549.673767 532.257568,549.675049
	C563.415100,549.676880 594.572876,549.613464 625.729736,549.760681
	C630.116455,549.781372 631.664001,548.147644 631.690857,543.949341
	C631.731384,537.622253 631.615540,537.319336 624.994690,537.319153
	C549.017029,537.317017 473.039429,537.333374 397.061798,537.300964
	C395.130005,537.300110 393.088135,538.041687 391.254150,536.891235
	C389.495514,526.798218 389.495697,526.883362 378.915527,526.907043
	C371.759796,526.923035 364.604492,527.186218 357.442993,526.523376
	C352.328308,526.049988 350.398712,528.013794 350.347473,533.097168
	C350.276947,540.094421 350.321228,547.092896 350.321564,554.090820
	C350.322540,574.917969 350.317291,595.745117 350.340118,616.572266
	C350.342804,619.026611 349.963806,621.593689 352.976166,622.960938
	C360.480469,626.366943 366.725372,622.537048 366.736969,614.385437
	C366.770782,590.559326 366.852875,566.732849 366.747131,542.907349
	C366.730103,539.068665 367.874603,537.394470 371.868530,537.625854
	C376.020233,537.866516 380.213043,537.920471 384.357269,537.625732
	C388.821350,537.308228 390.902283,538.765076 390.395020,543.487854
	C390.132385,545.933167 389.951324,548.673035 394.152222,549.630432
M471.392883,515.668640
	C482.126648,515.676514 482.526642,515.316467 482.445740,504.455200
	C482.354004,492.138519 482.104034,479.822845 482.053680,467.506195
	C482.025085,460.518921 482.506165,453.523407 482.304169,446.544739
	C482.102966,439.594604 482.349548,438.941132 489.253906,439.137207
	C518.229797,439.960236 547.211060,439.483063 576.189636,439.591064
	C581.184082,439.609680 586.187622,439.727631 591.170654,439.476318
	C595.788696,439.243408 597.846008,436.384430 596.477600,432.499084
	C595.337952,429.263184 592.417603,429.428101 589.783081,429.418762
	C575.288574,429.367340 560.793945,429.390625 546.299316,429.388428
	C493.818787,429.380493 441.338257,429.366730 388.857727,429.371643
	C381.833099,429.372284 380.402679,430.408722 380.382477,436.135071
	C380.300903,459.292847 380.365143,482.451111 380.315613,505.609039
	C380.306580,509.829926 382.344849,511.695496 386.427704,511.691376
	C396.090607,511.681580 405.753571,511.682678 415.416443,511.704926
	C420.000671,511.715485 421.798523,509.647736 421.746063,504.914581
	C421.544922,486.756897 421.545685,468.594543 421.706268,450.436035
	C421.822723,437.270233 419.261017,439.028839 433.796631,438.722961
	C438.274597,438.628723 439.448883,440.260803 439.413300,444.538025
	C439.235870,465.861969 439.310944,487.188324 439.352631,508.513672
	C439.363800,514.233826 440.772461,515.617065 446.428650,515.652893
	C454.425354,515.703613 462.422638,515.667114 471.392883,515.668640
M483.647980,330.351807
	C483.648315,319.713135 483.593231,309.073975 483.680511,298.436005
	C483.709167,294.940338 482.493683,293.265900 478.742004,293.314270
	C467.606293,293.457886 456.467560,293.426422 445.330536,293.364868
	C441.808167,293.345428 440.013123,294.895508 440.020233,298.399109
	C440.046539,311.361542 440.112152,324.323883 440.145233,337.286285
	C440.152466,340.110443 441.408905,341.647430 444.337250,341.646088
	C455.640656,341.640930 466.944153,341.671295 478.247406,341.634644
	C481.718750,341.623383 483.322235,339.537018 483.573486,336.283844
	C483.701202,334.630371 483.628662,332.961456 483.647980,330.351807
M550.712891,293.374451
	C546.697510,293.530060 541.545227,292.260376 541.427307,298.630585
	C541.190552,311.426941 541.376465,324.230896 541.359375,337.031677
	C541.355286,340.117096 542.804138,341.645325 545.900940,341.645294
	C557.039307,341.645081 568.177612,341.664520 579.315979,341.663788
	C582.515930,341.663574 584.510071,339.950867 584.531555,336.854980
	C584.620483,324.058075 584.549377,311.259186 584.421814,298.462189
	C584.385315,294.799927 582.316284,293.264435 578.595093,293.323486
	C569.619934,293.466003 560.641052,293.374969 550.712891,293.374451
M638.320129,685.060242
	C638.868103,690.524719 639.400574,690.670410 646.879944,690.765442
	C651.583984,690.825073 652.958740,688.628418 652.946960,684.367310
	C652.890747,664.064270 652.967346,643.760925 652.968201,623.457642
	C652.968994,604.319336 652.952942,585.180908 652.888306,566.042725
	C652.881287,563.957825 653.389221,561.387695 650.867798,560.336060
	C647.402832,558.890808 643.597534,558.567078 640.186401,560.057495
	C637.392151,561.278381 638.352722,564.429321 638.350037,566.821106
	C638.306519,605.930786 638.316772,645.040527 638.320129,685.060242
M330.006104,418.225800
	C332.167542,418.165649 334.329468,418.119385 336.490295,418.041748
	C339.011841,417.951172 341.713776,418.144806 341.757477,414.400848
	C341.796906,411.021271 340.807831,408.673279 336.969757,408.050781
	C330.836029,407.055939 324.681854,407.553955 318.538269,407.348724
	C313.719482,407.187805 311.410706,409.457855 311.406464,414.185455
	C311.383911,439.148315 311.370209,464.111206 311.370941,489.074066
	C311.371002,490.751801 311.404358,492.629242 313.134857,493.463013
	C316.407318,495.039886 320.041382,495.230255 323.370850,494.173187
	C326.723358,493.108795 325.633545,489.726227 325.641632,487.218842
	C325.709137,466.250000 325.672180,445.280853 325.692230,424.311798
	C325.694702,421.722076 325.084564,418.690643 330.006104,418.225800
M648.081665,526.575928
	C644.759216,526.672913 641.436035,526.866211 638.114502,526.841919
	C634.155273,526.812927 633.010376,528.908142 633.000732,532.539551
	C632.990051,536.544678 634.991089,537.714172 638.610168,537.685181
	C648.603394,537.605103 658.598022,537.623230 668.591492,537.691040
	C672.825317,537.719788 674.595764,535.629333 674.639954,531.550354
	C674.687317,527.180847 672.073364,526.290039 668.433899,526.373657
	C661.948059,526.522766 655.459961,526.578857 648.081665,526.575928
M356.525848,429.675415
	C362.667938,429.669403 368.809998,429.665314 374.952087,429.656433
	C377.415771,429.652893 379.803467,429.276337 380.322021,426.365265
	C380.787445,423.752167 380.007019,421.347290 377.586090,419.933411
	C376.333771,419.202057 374.829468,418.488129 373.435486,418.481232
	C364.975250,418.439362 356.514191,418.621307 348.053070,418.691040
	C344.056305,418.723969 342.000000,420.181885 342.254517,424.673981
	C342.506805,429.127411 345.017914,429.796051 348.568085,429.681915
	C350.889648,429.607269 353.215698,429.672089 356.525848,429.675415
M350.277130,648.592163
	C350.278198,649.757874 350.279083,650.923645 350.280304,652.089355
	C350.291992,663.472107 350.311432,663.427368 361.737335,662.734131
	C364.983276,662.537109 366.742065,661.253296 366.737000,657.916565
	C366.730194,653.420410 366.765625,648.923279 366.679962,644.428528
	C366.628815,641.744446 365.629486,639.483215 362.865784,638.589294
	C354.556519,635.901489 350.289062,638.998779 350.277130,648.592163
M696.183838,524.876221
	C701.732483,525.556946 701.785156,522.012024 701.806152,517.982605
	C701.829163,513.567566 699.749146,512.134521 695.649414,512.270081
	C690.672791,512.434692 685.682312,512.445740 680.705994,512.279419
	C675.933655,512.119995 675.380432,515.048462 675.316895,518.753357
	C675.255798,522.312622 675.754456,525.036560 680.307434,524.892761
	C685.283447,524.735657 690.268616,524.865479 696.183838,524.876221
M334.559418,512.311279
	C333.063507,512.312256 331.557159,512.427368 330.073669,512.292114
	C326.162994,511.935303 324.217712,513.298035 324.262115,517.571594
	C324.304291,521.630859 324.534424,524.997681 329.843048,524.898010
	C334.993195,524.801270 340.146057,524.856628 345.297607,524.823303
	C347.267365,524.810608 349.154083,524.300171 349.426025,522.061768
	C350.209290,515.614380 349.939423,511.739227 342.501312,512.285156
	C340.186829,512.455017 337.849304,512.311768 334.559418,512.311279
M296.449341,398.007874
	C296.221741,406.809265 296.586121,407.094788 305.587982,406.767853
	C308.364288,406.667023 310.353851,406.111847 310.941406,402.929535
	C311.451202,400.168365 311.784515,397.625885 309.004639,395.894806
	C306.382874,394.262207 299.057709,395.073334 296.449341,398.007874
z"/>
</svg>
